# xmcd CD database file
#
# Track frame offsets:
#	150
#	16652
#	29263
#	47367
#	65824
#	84234
#	101614
#	125408
#	145991
#	169005
#	182180
#	201274
#	216203
#
# Disc length: 3130 seconds
#
# Revision: 0
# Processed by: cddbd v1.5.2PL0 Copyright (c) Steve Scherf et al.
# Submitted via: CDex 1.70beta2
#
DISCID=b00c380d
DTITLE=Ida Sand - Meet me around midnight
DYEAR=2007
DGENRE=Jazz
TTITLE0=Mr Pianoman
TTITLE1=Bang Bang
TTITLE2=Brutal Truth
TTITLE3=Every Little Bit Hurts
TTITLE4=Here Comes The Rain Again
TTITLE5=One For My Baby
TTITLE6=Feeding Off The Love Of...
TTITLE7=Higher Ground
TTITLE8=At Last
TTITLE9=Baby Don't You Tear My ...
TTITLE10=Maybe You'll Be There
TTITLE11=Use Me
TTITLE12=Home
EXTD=YEAR: 2007
EXTT0=
EXTT1=
EXTT2=
EXTT3=
EXTT4=
EXTT5=
EXTT6=
EXTT7=
EXTT8=
EXTT9=
EXTT10=
EXTT11=
EXTT12=
PLAYORDER=
